<mxfile host="app.diagrams.net" agent="Mozilla/5.0 (Windows NT 10.0; Win64; x64) AppleWebKit/537.36 (KHTML, like Gecko) Chrome/134.0.0.0 Safari/537.36" version="26.1.3">
  <diagram name="Page-1" id="F6lXygc_6NLY8PlQxDrW">
    <mxGraphModel dx="2160" dy="1112" grid="0" gridSize="10" guides="1" tooltips="1" connect="1" arrows="1" fold="1" page="0" pageScale="1" pageWidth="850" pageHeight="1100" math="0" shadow="0">
      <root>
        <mxCell id="0" />
        <mxCell id="1" parent="0" />
        <mxCell id="Fs--lFABOoEZHQ23tQJz-4" value="&lt;h4&gt;&lt;font&gt;START&lt;/font&gt;&lt;/h4&gt;" style="ellipse;whiteSpace=wrap;html=1;" vertex="1" parent="1">
          <mxGeometry x="-35" y="27" width="112" height="58" as="geometry" />
        </mxCell>
        <mxCell id="Fs--lFABOoEZHQ23tQJz-5" value="&lt;h4&gt;Studi Literatur&lt;/h4&gt;" style="rounded=0;whiteSpace=wrap;html=1;" vertex="1" parent="1">
          <mxGeometry x="-57" y="126" width="156" height="60" as="geometry" />
        </mxCell>
        <mxCell id="Fs--lFABOoEZHQ23tQJz-6" value="&lt;h4&gt;Obserasi&lt;/h4&gt;" style="rounded=0;whiteSpace=wrap;html=1;" vertex="1" parent="1">
          <mxGeometry x="-57" y="227" width="156" height="60" as="geometry" />
        </mxCell>
        <mxCell id="Fs--lFABOoEZHQ23tQJz-7" value="&lt;h4&gt;Identifikasi Masalah Mitra&lt;/h4&gt;" style="rounded=0;whiteSpace=wrap;html=1;" vertex="1" parent="1">
          <mxGeometry x="-57" y="328" width="156" height="60" as="geometry" />
        </mxCell>
        <mxCell id="Fs--lFABOoEZHQ23tQJz-8" value="&lt;h4&gt;Pembuatan akun ... di media sosial Instagram dan Tiktok&lt;/h4&gt;" style="rounded=0;whiteSpace=wrap;html=1;" vertex="1" parent="1">
          <mxGeometry x="-57" y="429" width="156" height="60" as="geometry" />
        </mxCell>
        <mxCell id="Fs--lFABOoEZHQ23tQJz-9" value="&lt;h4&gt;Pengembangan Media ...&amp;nbsp;&lt;/h4&gt;" style="rounded=0;whiteSpace=wrap;html=1;" vertex="1" parent="1">
          <mxGeometry x="-57" y="522" width="156" height="60" as="geometry" />
        </mxCell>
        <mxCell id="Fs--lFABOoEZHQ23tQJz-10" value="&lt;h4&gt;Pembuatan Buku Mitra&lt;/h4&gt;" style="rounded=0;whiteSpace=wrap;html=1;" vertex="1" parent="1">
          <mxGeometry x="-57" y="621" width="156" height="60" as="geometry" />
        </mxCell>
        <mxCell id="Fs--lFABOoEZHQ23tQJz-11" value="&lt;h4&gt;Sosialisasi&lt;/h4&gt;" style="rounded=0;whiteSpace=wrap;html=1;" vertex="1" parent="1">
          <mxGeometry x="-57" y="720" width="156" height="60" as="geometry" />
        </mxCell>
        <mxCell id="Fs--lFABOoEZHQ23tQJz-12" value="&lt;h4&gt;Pelatihan dan Pendampingan&lt;/h4&gt;" style="rounded=0;whiteSpace=wrap;html=1;" vertex="1" parent="1">
          <mxGeometry x="-57" y="825" width="156" height="60" as="geometry" />
        </mxCell>
        <mxCell id="Fs--lFABOoEZHQ23tQJz-13" value="Tahap Persiapan" style="rounded=0;whiteSpace=wrap;html=1;rotation=-90;" vertex="1" parent="1">
          <mxGeometry x="-268" y="278" width="120" height="60" as="geometry" />
        </mxCell>
        <mxCell id="Fs--lFABOoEZHQ23tQJz-14" value="Tahap Pelaksanaan" style="rounded=0;whiteSpace=wrap;html=1;rotation=-90;" vertex="1" parent="1">
          <mxGeometry x="-268" y="672" width="120" height="60" as="geometry" />
        </mxCell>
        <mxCell id="Fs--lFABOoEZHQ23tQJz-19" value="" style="group" vertex="1" connectable="0" parent="1">
          <mxGeometry x="-145" y="155" width="37" height="307" as="geometry" />
        </mxCell>
        <mxCell id="Fs--lFABOoEZHQ23tQJz-15" value="" style="endArrow=none;html=1;rounded=0;fontSize=12;startSize=8;endSize=8;curved=1;exitX=0.5;exitY=1;exitDx=0;exitDy=0;" edge="1" parent="Fs--lFABOoEZHQ23tQJz-19" source="Fs--lFABOoEZHQ23tQJz-13">
          <mxGeometry width="50" height="50" relative="1" as="geometry">
            <mxPoint x="-21" y="191" as="sourcePoint" />
            <mxPoint x="1" y="153" as="targetPoint" />
          </mxGeometry>
        </mxCell>
        <mxCell id="Fs--lFABOoEZHQ23tQJz-16" value="" style="endArrow=none;html=1;rounded=0;fontSize=12;startSize=8;endSize=8;curved=1;" edge="1" parent="Fs--lFABOoEZHQ23tQJz-19">
          <mxGeometry width="50" height="50" relative="1" as="geometry">
            <mxPoint y="307" as="sourcePoint" />
            <mxPoint x="3" as="targetPoint" />
          </mxGeometry>
        </mxCell>
        <mxCell id="Fs--lFABOoEZHQ23tQJz-17" value="" style="endArrow=none;html=1;rounded=0;fontSize=12;startSize=8;endSize=8;curved=1;exitX=0.5;exitY=1;exitDx=0;exitDy=0;" edge="1" parent="Fs--lFABOoEZHQ23tQJz-19">
          <mxGeometry width="50" height="50" relative="1" as="geometry">
            <mxPoint x="3" y="0.5699999999999932" as="sourcePoint" />
            <mxPoint x="37" y="0.5699999999999932" as="targetPoint" />
          </mxGeometry>
        </mxCell>
        <mxCell id="Fs--lFABOoEZHQ23tQJz-18" value="" style="endArrow=none;html=1;rounded=0;fontSize=12;startSize=8;endSize=8;curved=1;exitX=0.5;exitY=1;exitDx=0;exitDy=0;" edge="1" parent="Fs--lFABOoEZHQ23tQJz-19">
          <mxGeometry width="50" height="50" relative="1" as="geometry">
            <mxPoint y="307" as="sourcePoint" />
            <mxPoint x="34" y="307" as="targetPoint" />
          </mxGeometry>
        </mxCell>
        <mxCell id="Fs--lFABOoEZHQ23tQJz-25" value="" style="group" vertex="1" connectable="0" parent="1">
          <mxGeometry x="-141" y="549" width="37" height="307" as="geometry" />
        </mxCell>
        <mxCell id="Fs--lFABOoEZHQ23tQJz-26" value="" style="endArrow=none;html=1;rounded=0;fontSize=12;startSize=8;endSize=8;curved=1;exitX=0.5;exitY=1;exitDx=0;exitDy=0;" edge="1" parent="Fs--lFABOoEZHQ23tQJz-25" source="Fs--lFABOoEZHQ23tQJz-14">
          <mxGeometry width="50" height="50" relative="1" as="geometry">
            <mxPoint x="-21" y="191" as="sourcePoint" />
            <mxPoint x="1" y="153" as="targetPoint" />
          </mxGeometry>
        </mxCell>
        <mxCell id="Fs--lFABOoEZHQ23tQJz-27" value="" style="endArrow=none;html=1;rounded=0;fontSize=12;startSize=8;endSize=8;curved=1;" edge="1" parent="Fs--lFABOoEZHQ23tQJz-25">
          <mxGeometry width="50" height="50" relative="1" as="geometry">
            <mxPoint y="307" as="sourcePoint" />
            <mxPoint x="3" as="targetPoint" />
          </mxGeometry>
        </mxCell>
        <mxCell id="Fs--lFABOoEZHQ23tQJz-28" value="" style="endArrow=none;html=1;rounded=0;fontSize=12;startSize=8;endSize=8;curved=1;exitX=0.5;exitY=1;exitDx=0;exitDy=0;" edge="1" parent="Fs--lFABOoEZHQ23tQJz-25">
          <mxGeometry width="50" height="50" relative="1" as="geometry">
            <mxPoint x="3" y="0.5699999999999932" as="sourcePoint" />
            <mxPoint x="37" y="0.5699999999999932" as="targetPoint" />
          </mxGeometry>
        </mxCell>
        <mxCell id="Fs--lFABOoEZHQ23tQJz-29" value="" style="endArrow=none;html=1;rounded=0;fontSize=12;startSize=8;endSize=8;curved=1;exitX=0.5;exitY=1;exitDx=0;exitDy=0;" edge="1" parent="Fs--lFABOoEZHQ23tQJz-25">
          <mxGeometry width="50" height="50" relative="1" as="geometry">
            <mxPoint y="307" as="sourcePoint" />
            <mxPoint x="34" y="307" as="targetPoint" />
          </mxGeometry>
        </mxCell>
        <mxCell id="Fs--lFABOoEZHQ23tQJz-37" value="A" style="ellipse;whiteSpace=wrap;html=1;aspect=fixed;" vertex="1" parent="1">
          <mxGeometry x="-7" y="930" width="56" height="56" as="geometry" />
        </mxCell>
        <mxCell id="Fs--lFABOoEZHQ23tQJz-38" value="A" style="ellipse;whiteSpace=wrap;html=1;aspect=fixed;" vertex="1" parent="1">
          <mxGeometry x="421" y="28" width="56" height="56" as="geometry" />
        </mxCell>
        <mxCell id="Fs--lFABOoEZHQ23tQJz-39" value="&lt;h4&gt;Evaluasi Tingkat Pemahaman Mitra&lt;/h4&gt;" style="rounded=0;whiteSpace=wrap;html=1;" vertex="1" parent="1">
          <mxGeometry x="371" y="126" width="156" height="60" as="geometry" />
        </mxCell>
        <mxCell id="Fs--lFABOoEZHQ23tQJz-40" value="Apakah Mitra sudah Mahir Menggunakan Media&amp;nbsp;" style="rhombus;whiteSpace=wrap;html=1;" vertex="1" parent="1">
          <mxGeometry x="321.5" y="227" width="255" height="194" as="geometry" />
        </mxCell>
        <mxCell id="Fs--lFABOoEZHQ23tQJz-41" value="Laporan Tingkat&amp;nbsp;&lt;div&gt;Keberhasilan Mitra&lt;/div&gt;" style="shape=parallelogram;perimeter=parallelogramPerimeter;whiteSpace=wrap;html=1;fixedSize=1;" vertex="1" parent="1">
          <mxGeometry x="346" y="462" width="206" height="60" as="geometry" />
        </mxCell>
        <mxCell id="Fs--lFABOoEZHQ23tQJz-43" value="&lt;h4&gt;Implementasi Aplikasi di Lokasi Mitra&lt;/h4&gt;" style="rounded=0;whiteSpace=wrap;html=1;" vertex="1" parent="1">
          <mxGeometry x="371" y="563" width="156" height="60" as="geometry" />
        </mxCell>
        <mxCell id="Fs--lFABOoEZHQ23tQJz-44" value="&lt;h4&gt;PublikasiHasil Kegiatan yang telah di terapkan kepada Mitra Melalui Media Sosial&lt;/h4&gt;" style="rounded=0;whiteSpace=wrap;html=1;" vertex="1" parent="1">
          <mxGeometry x="362.5" y="758" width="175.5" height="77" as="geometry" />
        </mxCell>
        <mxCell id="Fs--lFABOoEZHQ23tQJz-45" value="&lt;h4&gt;Pengurusan Legalitas untuk Mendapatkan Dukungan dari Dinas Perkebunan Kota Makassar&lt;/h4&gt;" style="rounded=0;whiteSpace=wrap;html=1;" vertex="1" parent="1">
          <mxGeometry x="361.5" y="655" width="175" height="71" as="geometry" />
        </mxCell>
        <mxCell id="Fs--lFABOoEZHQ23tQJz-46" value="&lt;h4&gt;Penyusunan Laporan :&lt;br&gt;&lt;span style=&quot;background-color: transparent; color: light-dark(rgb(0, 0, 0), rgb(255, 255, 255)); font-weight: normal;&quot;&gt;- Laporan Kemajuan&lt;br&gt;&lt;/span&gt;&lt;span style=&quot;background-color: transparent; color: light-dark(rgb(0, 0, 0), rgb(255, 255, 255)); font-weight: normal;&quot;&gt;- Laporan Akhir&lt;br&gt;&lt;/span&gt;&lt;span style=&quot;background-color: transparent; color: light-dark(rgb(0, 0, 0), rgb(255, 255, 255)); font-weight: normal;&quot;&gt;- Artikel Ilmiah&lt;/span&gt;&lt;/h4&gt;" style="rounded=0;whiteSpace=wrap;html=1;align=center;" vertex="1" parent="1">
          <mxGeometry x="362.5" y="867" width="175.5" height="77" as="geometry" />
        </mxCell>
        <mxCell id="Fs--lFABOoEZHQ23tQJz-47" value="&lt;h4&gt;&lt;font&gt;END&lt;/font&gt;&lt;/h4&gt;" style="ellipse;whiteSpace=wrap;html=1;" vertex="1" parent="1">
          <mxGeometry x="393" y="976" width="112" height="58" as="geometry" />
        </mxCell>
        <mxCell id="Fs--lFABOoEZHQ23tQJz-48" value="Tahap Persiapan" style="rounded=0;whiteSpace=wrap;html=1;rotation=90;" vertex="1" parent="1">
          <mxGeometry x="670" y="300.5" width="120" height="60" as="geometry" />
        </mxCell>
        <mxCell id="Fs--lFABOoEZHQ23tQJz-49" value="Tahap Keberlanjutan" style="rounded=0;whiteSpace=wrap;html=1;rotation=90;" vertex="1" parent="1">
          <mxGeometry x="670" y="723" width="120" height="60" as="geometry" />
        </mxCell>
        <mxCell id="Fs--lFABOoEZHQ23tQJz-50" value="" style="group;rotation=-180;" vertex="1" connectable="0" parent="1">
          <mxGeometry x="640" y="543" width="37" height="342" as="geometry" />
        </mxCell>
        <mxCell id="Fs--lFABOoEZHQ23tQJz-51" value="" style="endArrow=none;html=1;rounded=0;fontSize=12;startSize=8;endSize=8;curved=1;exitX=0.5;exitY=1;exitDx=0;exitDy=0;" edge="1" parent="Fs--lFABOoEZHQ23tQJz-50" source="Fs--lFABOoEZHQ23tQJz-49">
          <mxGeometry width="50" height="50" relative="1" as="geometry">
            <mxPoint x="58" y="168.21498371335505" as="sourcePoint" />
            <mxPoint x="36" y="210.5472312703583" as="targetPoint" />
          </mxGeometry>
        </mxCell>
        <mxCell id="Fs--lFABOoEZHQ23tQJz-52" value="" style="endArrow=none;html=1;rounded=0;fontSize=12;startSize=8;endSize=8;curved=1;" edge="1" parent="Fs--lFABOoEZHQ23tQJz-50">
          <mxGeometry width="50" height="50" relative="1" as="geometry">
            <mxPoint x="37" y="38.990228013029316" as="sourcePoint" />
            <mxPoint x="34" y="380.9902280130293" as="targetPoint" />
          </mxGeometry>
        </mxCell>
        <mxCell id="Fs--lFABOoEZHQ23tQJz-53" value="" style="endArrow=none;html=1;rounded=0;fontSize=12;startSize=8;endSize=8;curved=1;exitX=0.5;exitY=1;exitDx=0;exitDy=0;" edge="1" parent="Fs--lFABOoEZHQ23tQJz-50">
          <mxGeometry width="50" height="50" relative="1" as="geometry">
            <mxPoint x="34" y="379.87622149837136" as="sourcePoint" />
            <mxPoint y="379.87622149837136" as="targetPoint" />
          </mxGeometry>
        </mxCell>
        <mxCell id="Fs--lFABOoEZHQ23tQJz-54" value="" style="endArrow=none;html=1;rounded=0;fontSize=12;startSize=8;endSize=8;curved=1;exitX=0.5;exitY=1;exitDx=0;exitDy=0;" edge="1" parent="Fs--lFABOoEZHQ23tQJz-50">
          <mxGeometry width="50" height="50" relative="1" as="geometry">
            <mxPoint x="37" y="38.990228013029316" as="sourcePoint" />
            <mxPoint x="3" y="38.990228013029316" as="targetPoint" />
          </mxGeometry>
        </mxCell>
        <mxCell id="Fs--lFABOoEZHQ23tQJz-55" value="" style="group;rotation=-180;" vertex="1" connectable="0" parent="1">
          <mxGeometry x="640" y="121" width="37" height="342" as="geometry" />
        </mxCell>
        <mxCell id="Fs--lFABOoEZHQ23tQJz-56" value="" style="endArrow=none;html=1;rounded=0;fontSize=12;startSize=8;endSize=8;curved=1;exitX=0.5;exitY=1;exitDx=0;exitDy=0;" edge="1" parent="Fs--lFABOoEZHQ23tQJz-55" source="Fs--lFABOoEZHQ23tQJz-48">
          <mxGeometry width="50" height="50" relative="1" as="geometry">
            <mxPoint x="58" y="168.21498371335505" as="sourcePoint" />
            <mxPoint x="36" y="210.5472312703583" as="targetPoint" />
          </mxGeometry>
        </mxCell>
        <mxCell id="Fs--lFABOoEZHQ23tQJz-57" value="" style="endArrow=none;html=1;rounded=0;fontSize=12;startSize=8;endSize=8;curved=1;" edge="1" parent="Fs--lFABOoEZHQ23tQJz-55">
          <mxGeometry width="50" height="50" relative="1" as="geometry">
            <mxPoint x="37" y="38.990228013029316" as="sourcePoint" />
            <mxPoint x="34" y="380.9902280130293" as="targetPoint" />
          </mxGeometry>
        </mxCell>
        <mxCell id="Fs--lFABOoEZHQ23tQJz-58" value="" style="endArrow=none;html=1;rounded=0;fontSize=12;startSize=8;endSize=8;curved=1;exitX=0.5;exitY=1;exitDx=0;exitDy=0;" edge="1" parent="Fs--lFABOoEZHQ23tQJz-55">
          <mxGeometry width="50" height="50" relative="1" as="geometry">
            <mxPoint x="34" y="379.87622149837136" as="sourcePoint" />
            <mxPoint y="379.87622149837136" as="targetPoint" />
          </mxGeometry>
        </mxCell>
        <mxCell id="Fs--lFABOoEZHQ23tQJz-59" value="" style="endArrow=none;html=1;rounded=0;fontSize=12;startSize=8;endSize=8;curved=1;exitX=0.5;exitY=1;exitDx=0;exitDy=0;" edge="1" parent="Fs--lFABOoEZHQ23tQJz-55">
          <mxGeometry width="50" height="50" relative="1" as="geometry">
            <mxPoint x="37" y="38.990228013029316" as="sourcePoint" />
            <mxPoint x="3" y="38.990228013029316" as="targetPoint" />
          </mxGeometry>
        </mxCell>
      </root>
    </mxGraphModel>
  </diagram>
</mxfile>
